<?xml version="1.0" encoding="UTF-8" standalone="no"?>
<!-- Created with Inkscape (http://www.inkscape.org/) -->

<svg
   width="51.295124mm"
   height="51.314857mm"
   viewBox="0 0 51.295124 51.314857"
   version="1.1"
   id="svg28589"
   inkscape:version="1.1.2 (0a00cf5339, 2022-02-04)"
   sodipodi:docname="logo.svg"
   xmlns:inkscape="http://www.inkscape.org/namespaces/inkscape"
   xmlns:sodipodi="http://sodipodi.sourceforge.net/DTD/sodipodi-0.dtd"
   xmlns="http://www.w3.org/2000/svg"
   xmlns:svg="http://www.w3.org/2000/svg">
  <sodipodi:namedview
     id="namedview28591"
     pagecolor="#ffffff"
     bordercolor="#666666"
     borderopacity="1.0"
     inkscape:pageshadow="2"
     inkscape:pageopacity="0.0"
     inkscape:pagecheckerboard="0"
     inkscape:document-units="mm"
     showgrid="false"
     fit-margin-top="0"
     fit-margin-left="0"
     fit-margin-right="0"
     fit-margin-bottom="0"
     inkscape:zoom="0.64052329"
     inkscape:cx="-214.66823"
     inkscape:cy="363.76507"
     inkscape:window-width="1920"
     inkscape:window-height="1129"
     inkscape:window-x="1200"
     inkscape:window-y="207"
     inkscape:window-maximized="1"
     inkscape:current-layer="layer1" />
  <defs
     id="defs28586" />
  <g
     inkscape:label="Ebene 1"
     inkscape:groupmode="layer"
     id="layer1"
     transform="translate(1.2762129,-52.000429)">
    <g
       id="#ff8532ff"
       transform="matrix(0.30535901,0,0,0.30535901,-24.054495,13.681934)"
       style="fill:#8dd35f"
       inkscape:export-filename="/home/heinz/Nextcloud/lichtung/#fefff.png"
       inkscape:export-xdpi="109"
       inkscape:export-ydpi="109">
      <path
         fill="#ff8532"
         opacity="1"
         d="m 145.4,126.5 c 18.01,-2.82 36.94,0.27 52.98,8.97 14.18,7.6 26.09,19.37 33.81,33.48 10.43,18.65 13.07,41.37 7.63,61.99 -4.34,17.11 -14.5,32.58 -28.15,43.73 -13.6,11.29 -30.96,17.75 -48.57,18.74 -18.53,1.02 -37.37,-4.26 -52.56,-14.95 -15.83,-10.97 -27.7,-27.57 -32.85,-46.14 -4.97,-17.87 -3.95,-37.39 3.03,-54.59 10.78,-26.75 36.1,-46.99 64.68,-51.23 m 3,14.99 c -13.8,1.99 -26.85,8.45 -37.02,17.96 -13.72,12.9 -21.88,31.68 -21.42,50.56 -0.12,11.37 2.89,22.71 8.38,32.64 8.68,16.07 24.16,28.23 41.73,33.1 16.39,4.54 34.52,2.87 49.65,-4.97 13.15,-6.57 24.02,-17.59 30.49,-30.77 7.21,-14.43 8.93,-31.44 5.1,-47.08 -3.68,-15.07 -12.72,-28.77 -25.07,-38.15 -14.55,-11.18 -33.7,-16.06 -51.84,-13.29 z"
         id="path8"
         style="fill:#8dd35f" />
    </g>
    <g
       id="#ffa466ff"
       transform="matrix(0.30535901,0,0,0.30535901,-24.054495,13.681934)"
       style="fill:#aade87"
       inkscape:export-filename="/home/heinz/Nextcloud/lichtung/#fefff.png"
       inkscape:export-xdpi="109"
       inkscape:export-ydpi="109">
      <path
         fill="#ffa466"
         opacity="1"
         d="m 148.4,141.49 c 18.14,-2.77 37.29,2.11 51.84,13.29 12.35,9.38 21.39,23.08 25.07,38.15 3.83,15.64 2.11,32.65 -5.1,47.08 -6.47,13.18 -17.34,24.2 -30.49,30.77 -15.13,7.84 -33.26,9.51 -49.65,4.97 -17.57,-4.87 -33.05,-17.03 -41.73,-33.1 -5.49,-9.93 -8.5,-21.27 -8.38,-32.64 -0.46,-18.88 7.7,-37.66 21.42,-50.56 10.17,-9.51 23.22,-15.97 37.02,-17.96 m 3.05,14.99 c -14.9,1.83 -28.7,10.5 -37.13,22.87 -8.63,12.61 -11.39,28.98 -7.48,43.74 3.03,11.89 10.36,22.6 20.32,29.75 12.11,8.95 28.1,12.15 42.76,8.95 13.75,-2.78 25.98,-11.52 33.62,-23.21 5.8,-9.05 8.88,-19.83 8.46,-30.59 -0.16,-15.71 -8.07,-30.94 -20.39,-40.58 -11.14,-8.96 -26.04,-12.84 -40.16,-10.93 z"
         id="path11"
         style="fill:#aade87" />
    </g>
    <g
       id="#ffc299ff"
       transform="matrix(0.30535901,0,0,0.30535901,-24.054495,13.681934)"
       style="fill:#ffe680"
       inkscape:export-filename="/home/heinz/Nextcloud/lichtung/#fefff.png"
       inkscape:export-xdpi="109"
       inkscape:export-ydpi="109">
      <path
         fill="#ffc299"
         opacity="1"
         d="m 151.45,156.48 c 14.12,-1.91 29.02,1.97 40.16,10.93 12.32,9.64 20.23,24.87 20.39,40.58 0.42,10.76 -2.66,21.54 -8.46,30.59 -7.64,11.69 -19.87,20.43 -33.62,23.21 -14.66,3.2 -30.65,0 -42.76,-8.95 -9.96,-7.15 -17.29,-17.86 -20.32,-29.75 -3.91,-14.76 -1.15,-31.13 7.48,-43.74 8.43,-12.37 22.23,-21.04 37.13,-22.87 m 3.83,14.95 c -14.09,0.97 -26.95,10.64 -32.17,23.7 -4.92,12.05 -3.23,26.69 4.66,37.11 4.86,6.78 12.14,11.73 20.14,14.04 10.34,3.09 21.96,1.38 31.08,-4.36 13.95,-8.54 20.99,-26.52 16.55,-42.27 -4.25,-17.54 -22.35,-30.13 -40.26,-28.22 z"
         id="path14"
         style="fill:#ffe680" />
    </g>
    <g
       id="#ffe0ccff"
       transform="matrix(0.30535901,0,0,0.30535901,-24.054495,13.681934)"
       style="fill:#fff6d5"
       inkscape:export-filename="/home/heinz/Nextcloud/lichtung/#fefff.png"
       inkscape:export-xdpi="109"
       inkscape:export-ydpi="109">
      <path
         fill="#ffe0cc"
         opacity="1"
         d="m 155.28,171.43 c 17.91,-1.91 36.01,10.68 40.26,28.22 4.44,15.75 -2.6,33.73 -16.55,42.27 -9.12,5.74 -20.74,7.45 -31.08,4.36 -8,-2.31 -15.28,-7.26 -20.14,-14.04 -7.89,-10.42 -9.58,-25.06 -4.66,-37.11 5.22,-13.06 18.08,-22.73 32.17,-23.7 m 3.97,15.07 c -8.99,-0.34 -17.82,5.05 -21.53,13.24 -3.83,8.04 -2.5,18.35 3.6,24.92 5.51,6.66 15.12,9.35 23.38,7.03 6.93,-1.74 12.63,-7.13 15.29,-13.68 2.75,-7.24 1.88,-15.93 -2.86,-22.14 -4.12,-5.64 -10.87,-9.25 -17.88,-9.37 z"
         id="path17"
         style="fill:#fff6d5" />
    </g>
  </g>
</svg>
